<svg xmlns="http://www.w3.org/2000/svg" viewBox="0 0 640 200" role="img" aria-label="EduClear logo">
  <defs>
    <linearGradient id="gold" x1="0" y1="0" x2="1" y2="1">
      <stop offset="0" stop-color="#D4AF37"/>
      <stop offset="0.55" stop-color="#F5D06F"/>
      <stop offset="1" stop-color="#B88A17"/>
    </linearGradient>
  </defs>

  <!-- Icon (book + cap), transparent background -->
  <g transform="translate(24,24)">
    <!-- Book -->
    <path d="M64 120c-24-18-48-24-72-18V32c24-6 48 0 72 18 24-18 48-24 72-18v70c-24-6-48 0-72 18Z"
      fill="none" stroke="url(#gold)" stroke-width="10" stroke-linejoin="round"/>
    <path d="M64 52v70" stroke="url(#gold)" stroke-width="10" stroke-linecap="round"/>

    <!-- Cap -->
    <path d="M64 12 16 32l48 20 48-20-48-20Z" fill="url(#gold)"/>
    <path d="M32 40v18c0 8 14 16 32 16s32-8 32-16V40" fill="none" stroke="url(#gold)" stroke-width="8" stroke-linecap="round"/>
    <path d="M112 32v26" stroke="url(#gold)" stroke-width="8" stroke-linecap="round"/>
    <circle cx="112" cy="66" r="6" fill="url(#gold)"/>
  </g>

  <!-- Wordmark -->
  <text x="190" y="122"
    font-family="Inter, system-ui, -apple-system, Segoe UI, Roboto, Arial, sans-serif"
    font-size="84"
    font-weight="800"
    fill="#0f0f0f"
    letter-spacing="-1.5">
    EduClear
  </text>
</svg>

